<?xml version="1.0" encoding="utf-8"?>
<!-- Generator: Adobe Illustrator 23.0.1, SVG Export Plug-In . SVG Version: 6.00 Build 0)  -->
<svg version="1.1" id="Layer_1" xmlns="http://www.w3.org/2000/svg" xmlns:xlink="http://www.w3.org/1999/xlink" x="0px" y="0px"
	 viewBox="0 0 600 600" style="enable-background:new 0 0 600 600;" xml:space="preserve">
<style type="text/css">
	.st0{fill:#5C8DBC;}
	.st1{fill:#1A4674;}
	.st2{fill:#1B598E;}
	.st3{fill:#FFFFFF;}
</style>
<g>
	<path class="st0" d="M521.5,197.4c0-8.4-1.8-15.8-5.4-22.1c-3.6-6.2-8.9-11.5-16-15.6c-59-34-118-67.9-177-102
		c-15.9-9.2-31.3-8.8-47.1,0.5C252.5,72,134.9,139.4,99.9,159.7c-14.4,8.3-21.4,21.1-21.4,37.7c0,68.4,0,136.8,0,205.2
		c0,8.2,1.7,15.5,5.2,21.7c3.6,6.4,9,11.8,16.3,16c35,20.3,152.6,87.6,176.1,101.5c15.8,9.3,31.2,9.6,47.1,0.5c59-34,118-68,177-102
		c7.3-4.2,12.7-9.6,16.3-16c3.5-6.3,5.2-13.5,5.2-21.7C521.5,402.6,521.5,265.8,521.5,197.4"/>
	<path class="st1" d="M300.7,299.3l-217,125c3.6,6.4,9,11.8,16.3,16c35,20.3,152.6,87.6,176.1,101.5c15.8,9.3,31.2,9.6,47.1,0.5
		c59-34,118-68,177-102c7.3-4.2,12.7-9.6,16.3-16L300.7,299.3"/>
	<path class="st1" d="M236.4,336.4c12.6,22,36.4,36.9,63.6,36.9c27.4,0,51.3-15.1,63.9-37.3l-63.2-36.6L236.4,336.4"/>
	<path class="st2" d="M521.5,197.4c0-8.4-1.8-15.8-5.4-22.1l-215.4,124l215.7,124.9c3.5-6.3,5.2-13.5,5.2-21.7
		C521.5,402.6,521.5,265.8,521.5,197.4"/>
	<path class="st3" d="M509.7,308.3h-16.9v16.9H476v-16.9h-16.9v-16.9H476v-16.9h16.9v16.9h16.9L509.7,308.3 M448.2,308.3h-16.9v16.9
		h-16.9v-16.9h-16.9v-16.9h16.9v-16.9h16.9v16.9h16.9V308.3"/>
	<path class="st3" d="M363.9,335.9c-12.6,22.3-36.4,37.3-63.9,37.3c-27.2,0-51-14.9-63.6-36.9c-6.3-11.1-9.7-23.6-9.7-36.4
		c0-40.5,32.8-73.3,73.3-73.3c27.1,0,50.7,14.7,63.4,36.5l64-36.9c-25.5-43.9-73-73.5-127.4-73.5c-81.3,0-147.1,65.9-147.1,147.1
		c0,26.7,7.1,51.7,19.5,73.2c25.4,44.2,73,73.9,127.7,73.9s102.4-29.9,127.8-74.2L363.9,335.9"/>
</g>
</svg>
