<?xml version="1.0" encoding="utf-8"?>
<!-- Generator: Adobe Illustrator 23.0.1, SVG Export Plug-In . SVG Version: 6.00 Build 0)  -->
<svg version="1.1" id="Layer_1" xmlns="http://www.w3.org/2000/svg" xmlns:xlink="http://www.w3.org/1999/xlink" x="0px" y="0px"
	 viewBox="0 0 600 600" style="enable-background:new 0 0 600 600;" xml:space="preserve">
<style type="text/css">
	.st0{fill:#264DE4;}
	.st1{fill:#2965F1;}
	.st2{fill:#EBEBEB;}
	.st3{fill:#FFFFFF;}
</style>
<g id="layer1" transform="translate(-193.633,-276.3622)">
	<g id="g3013" transform="translate(119,276.3622)">
		<polygon id="polygon2989" class="st0" points="551,148.9 518.9,509 374.4,549 230.3,509 198.2,148.9 		"/>
		<polygon id="polygon2991" class="st1" points="491.4,486 518.9,178.3 374.6,178.3 374.6,518.4 		"/>
		<polygon id="polygon2993" class="st2" points="271.8,311.9 275.8,356 374.6,356 374.6,311.9 		"/>
		<polygon id="polygon2995" class="st2" points="374.6,222.5 374.5,222.5 263.9,222.5 267.9,266.6 374.6,266.6 		"/>
		<polygon id="polygon2997" class="st2" points="374.6,472.5 374.6,426.6 374.4,426.6 325.3,413.4 322.1,378.1 298.2,378.1 
			277.8,378.1 283.9,447.5 374.4,472.6 		"/>
		<path id="path2999" d="M281.3,51h53.5v22.4h-31.1v22.4h31.1v22.4h-53.5L281.3,51L281.3,51z"/>
		<path id="path3001" d="M345.5,51H399v19.5h-31.1v3.9H399v44.7h-53.5V98.7h31.1v-3.9h-31.1V51z"/>
		<path id="path3003" d="M409.6,51h53.5v19.5H432v3.9h31.1v44.7h-53.5V98.7h31.1v-3.9h-31.1V51z"/>
		<polygon id="polygon3005" class="st3" points="428.9,356 423.7,413.3 374.5,426.6 374.5,472.6 465,447.5 465.7,440 476.1,323.7 
			477.1,311.9 485.1,222.5 374.5,222.5 374.5,266.6 436.7,266.6 432.7,311.9 374.5,311.9 374.5,356 		"/>
	</g>
</g>
</svg>
