<?xml version="1.0" encoding="utf-8"?>
<!-- Generator: Adobe Illustrator 23.0.1, SVG Export Plug-In . SVG Version: 6.00 Build 0)  -->
<svg version="1.1" id="Layer_1" xmlns="http://www.w3.org/2000/svg" xmlns:xlink="http://www.w3.org/1999/xlink" x="0px" y="0px"
	 viewBox="0 0 600 600" style="enable-background:new 0 0 600 600;" xml:space="preserve">
<style type="text/css">
	.st0{fill:#0277BD;}
	.st1{fill-opacity:0;stroke:#000000;stroke-opacity:0;}
	.st2{fill:#039BE5;}
	.st3{fill:#FFFFFF;}
	.st4{fill:#EEEEEE;}
</style>
<g>
	<g>
		<g>
			<g>
				<g>
					<path id="b1qBl8xl4f" class="st0" d="M522.8,51H77.2l39.3,445.6L300,549l183.5-52.4L522.8,51z"/>
				</g>
				<g>
					<g>
						<path class="st1" d="M522.8,51H77.2l39.3,445.6L300,549l183.5-52.4L522.8,51z"/>
					</g>
				</g>
			</g>
			<g>
				<g>
					<path id="i1FpCaOpsl" class="st2" d="M300,90.3v418l146.8-41.9l32.8-376.1C479.5,90.3,300,90.3,300,90.3z"/>
				</g>
				<g>
					<g>
						<path class="st1" d="M300,90.3v418l146.8-41.9l32.8-376.1C479.5,90.3,300,90.3,300,90.3z"/>
					</g>
				</g>
			</g>
			<g>
				<g>
					<path id="egnoFcg5y" class="st3" d="M419.3,155.8H300v52.4h64.2l-3.9,52.4H300V313h57.6l-3.9,59L300,390.4v55.1l103.5-34.1
						l9.2-150.7L419.3,155.8z"/>
				</g>
				<g>
					<g>
						<path class="st1" d="M419.3,155.8H300v52.4h64.2l-3.9,52.4H300V313h57.6l-3.9,59L300,390.4v55.1l103.5-34.1l9.2-150.7
							L419.3,155.8z"/>
					</g>
				</g>
			</g>
			<g>
				<g>
					<path id="b32djVt8gY" class="st4" d="M300,155.8v52.4H183.4l-3.9-52.4C179.5,155.8,300,155.8,300,155.8z M239.7,260.7l2.7,52.4
						H300v-52.4H239.7L239.7,260.7z M245,339.3h-52.4l3.9,72.1L300,445.5v-55.1l-53.8-18.3L245,339.3z"/>
				</g>
				<g>
					<g>
						<path class="st1" d="M300,155.8v52.4H183.4l-3.9-52.4C179.5,155.8,300,155.8,300,155.8z M239.7,260.7l2.7,52.4H300v-52.4
							H239.7L239.7,260.7z M245,339.3h-52.4l3.9,72.1L300,445.5v-55.1l-53.8-18.3L245,339.3z"/>
					</g>
				</g>
			</g>
		</g>
	</g>
</g>
</svg>
