<?xml version="1.0" encoding="utf-8"?>
<!-- Generator: Adobe Illustrator 23.0.1, SVG Export Plug-In . SVG Version: 6.00 Build 0)  -->
<svg version="1.1" id="Layer_1" xmlns="http://www.w3.org/2000/svg" xmlns:xlink="http://www.w3.org/1999/xlink" x="0px" y="0px"
	 viewBox="0 0 600 600" style="enable-background:new 0 0 600 600;" xml:space="preserve">
<style type="text/css">
	.st0{fill:#F03C2E;}
</style>
<path class="st0" d="M539.7,277.9L322.2,60.4c-12.5-12.5-32.8-12.5-45.4,0l0,0l-45.2,45.2l57.3,57.3c13.3-4.7,28.6-1.5,39.2,9.1
	c10.3,10.3,13.8,25.6,9,39.4l55.2,55.2c13.4-4.6,28.8-1.6,39.4,9.1c14.9,14.9,14.9,39.1,0,54s-39.1,14.9-54,0
	c-11.2-11.2-14-27.7-8.3-41.5L318,236.7v135.5c3.7,1.9,7.2,4.3,10.1,7.2c14.9,14.9,14.9,39.1,0,54s-39.1,14.9-54,0l0,0
	c-14.9-14.9-14.9-39-0.1-53.9c0,0,0,0,0.1,0c3.7-3.7,7.8-6.5,12.5-8.3V234.3c-4.6-1.9-8.8-4.6-12.5-8.3c-11-10.9-14.2-27.4-8.2-41.7
	l-56.5-56.5l-149.1,149c-12.5,12.5-12.5,32.8,0,45.3l0,0l217.5,217.5c12.5,12.5,32.8,12.5,45.4,0l0,0l216.5-216.2
	C552.2,310.9,552.2,290.6,539.7,277.9L539.7,277.9"/>
</svg>
