<?xml version="1.0" encoding="utf-8"?>
<!-- Generator: Adobe Illustrator 23.0.1, SVG Export Plug-In . SVG Version: 6.00 Build 0)  -->
<svg version="1.1" id="Layer_1" xmlns="http://www.w3.org/2000/svg" xmlns:xlink="http://www.w3.org/1999/xlink" x="0px" y="0px"
	 viewBox="0 0 600 600" style="enable-background:new 0 0 600 600;" xml:space="preserve">
<style type="text/css">
	.st0{fill-rule:evenodd;clip-rule:evenodd;fill:#FFFFFF;}
	.st1{fill-rule:evenodd;clip-rule:evenodd;fill:#1B1F23;}
</style>
<g>
	<circle class="st0" cx="300" cy="300" r="249"/>
	<path class="st1" d="M300,54.4c-135.6,0-245.4,109.8-245.4,245.5c0,108.6,70.3,200.4,167.8,232.9c12.3,2.1,16.9-5.2,16.9-11.7
		c0-5.8-0.3-25.1-0.3-45.7c-61.7,11.3-77.6-15-82.5-28.8c-2.8-7-14.8-28.8-25.2-34.7c-8.6-4.6-20.9-16-0.3-16.2
		c19.3-0.3,33.1,17.8,37.7,25.1c22.1,37.1,57.4,26.7,71.5,20.2c2.1-16,8.6-26.7,15.7-32.8C201.2,402,144.1,380.8,144.1,287
		c0-26.7,9.5-48.8,25.1-65.9c-2.4-6.1-11-31.3,2.4-65.1c0,0,20.6-6.4,67.5,25.1c19.6-5.5,40.5-8.3,61.4-8.3s41.7,2.8,61.4,8.3
		c46.9-31.9,67.5-25.1,67.5-25.1c13.5,33.8,4.9,58.9,2.4,65.1C447.5,238.2,457,260,457,287c0,94.2-57.4,115.1-112,121.2
		c8.9,7.7,16.6,22.4,16.6,45.4c0,32.8-0.3,59.2-0.3,67.5c0,6.4,4.6,14.1,16.9,11.7c97-32.5,167.3-124.6,167.3-232.9
		C545.5,164.2,435.6,54.4,300,54.4z"/>
</g>
</svg>
