<?xml version="1.0" encoding="utf-8"?>
<!-- Generator: Adobe Illustrator 23.0.1, SVG Export Plug-In . SVG Version: 6.00 Build 0)  -->
<svg version="1.1" id="Layer_1" xmlns="http://www.w3.org/2000/svg" xmlns:xlink="http://www.w3.org/1999/xlink" x="0px" y="0px"
	 viewBox="0 0 600 600" style="enable-background:new 0 0 600 600;" xml:space="preserve">
<style type="text/css">
	.st0{fill:#E44D26;}
	.st1{fill:#F16529;}
	.st2{fill:#EBEBEB;}
	.st3{fill:#FFFFFF;}
</style>
<g>
	<path d="M156.4,51h22.4v22.2h20.6V51h22.4v67.1h-22.4V95.7H179v22.4h-22.6 M251.4,73.4h-19.7V51h62v22.4h-19.8v44.7h-22.4
		 M303.4,51h23.4l14.4,23.6L355.6,51H379v67.1h-22.4V84.8L341.1,109l-15.7-24.1v33.3h-22 M390.2,51h22.4v44.9h31.7v22.2h-54.1"/>
	<path class="st0" d="M155.7,509.1l-32.1-360.3h352.9l-32.1,360.1L299.7,549"/>
	<path class="st1" d="M300,518.4v-340h144.2l-27.5,307.4"/>
	<path class="st2" d="M189.1,222.5H300v44.2h-62.4l4.1,45.2H300V356h-98.8 M203.1,378.1h44.4l3.1,35.3l49.4,13.2v46.1l-90.6-25.3"/>
	<path class="st3" d="M410.5,222.5H299.8v44.2h106.6 M402.4,311.9H299.8V356h54.5l-5.2,57.4l-49.3,13.2v45.9l90.5-25.1"/>
</g>
</svg>
