<?xml version="1.0" encoding="utf-8"?>
<!-- Generator: Adobe Illustrator 23.0.1, SVG Export Plug-In . SVG Version: 6.00 Build 0)  -->
<svg version="1.1" id="Layer_1" xmlns="http://www.w3.org/2000/svg" xmlns:xlink="http://www.w3.org/1999/xlink" x="0px" y="0px"
	 viewBox="0 0 600 600" style="enable-background:new 0 0 600 600;" xml:space="preserve">
<style type="text/css">
	.st0{fill:#E34F26;}
	.st1{fill:#EF652A;}
	.st2{fill:#EBEBEB;}
	.st3{fill:#FFFFFF;}
</style>
<g>
	<path class="st0" d="M120.5,498.4L80.7,51h438.7l-39.9,447.4l-180,50.6"/>
	<path class="st1" d="M300.5,510.1l144.9-39.9l34-383.2h-179"/>
	<path class="st2" d="M300.5,253.3h-72.9l-4.9-56.4h77.8v-54.5H162.4L177,308.8h123.5V253.3z M299.5,396.3l-61.3-16.5l-3.9-43.8
		h-54.5l6.8,86.6l112.8,31.1L299.5,396.3L299.5,396.3z"/>
	<path class="st3" d="M299.5,253.3v55.4h68.1l-6.8,71l-61.3,16.5v57.4l112.8-31.1l15.6-169.2H299.5L299.5,253.3z M299.5,142.4v54.5
		h133.3l4.9-54.5C437.6,142.4,299.5,142.4,299.5,142.4z"/>
</g>
</svg>
