<?xml version="1.0" encoding="utf-8"?>
<!-- Generator: Adobe Illustrator 23.0.1, SVG Export Plug-In . SVG Version: 6.00 Build 0)  -->
<svg version="1.1" id="Layer_1" xmlns="http://www.w3.org/2000/svg" xmlns:xlink="http://www.w3.org/1999/xlink" x="0px" y="0px"
	 viewBox="0 0 600 600" style="enable-background:new 0 0 600 600;" xml:space="preserve">
<style type="text/css">
	.st0{fill:#5382A1;}
	.st1{fill:#E76F00;}
</style>
<g>
	<path class="st0" d="M234.6,436.1c0,0-19,11.1,13.5,14.8c39.5,4.5,59.6,3.9,103.1-4.4c0,0,11.4,7.2,27.4,13.4
		C281.2,501.7,158.1,457.5,234.6,436.1 M222.7,381.6c0,0-21.3,15.8,11.3,19.2c42.2,4.4,75.4,4.7,133.1-6.4c0,0,8,8.1,20.5,12.5
		C269.7,441.4,138.4,409.6,222.7,381.6"/>
	<path class="st1" d="M323.2,289.1c24,27.7-6.3,52.5-6.3,52.5s61-31.5,33-70.9c-26.2-36.8-46.2-55,62.4-118
		C412.2,152.7,241.7,195.3,323.2,289.1"/>
	<path class="st0" d="M452.1,476.5c0,0,14.1,11.6-15.5,20.6c-56.3,17-234.2,22.2-283.6,0.7c-17.8-7.7,15.6-18.5,26-20.7
		c10.9-2.4,17.2-1.9,17.2-1.9c-19.8-13.9-127.7,27.3-54.8,39.1C340.1,546.5,503.6,499.7,452.1,476.5 M243.8,325.1
		c0,0-90.5,21.5-32.1,29.3c24.7,3.3,73.9,2.6,119.7-1.3c37.5-3.2,75.1-9.9,75.1-9.9s-13.2,5.7-22.8,12.2
		c-91.9,24.2-269.5,12.9-218.4-11.8C208.6,322.8,243.8,325.1,243.8,325.1 M406.2,415.9c93.4-48.5,50.2-95.2,20.1-88.9
		c-7.4,1.5-10.7,2.9-10.7,2.9s2.7-4.3,8-6.2c59.6-21,105.5,61.9-19.3,94.7C404.3,418.3,405.7,417,406.2,415.9"/>
	<path class="st1" d="M349.8,51c0,0,51.7,51.8-49.1,131.4c-80.8,63.8-18.4,100.3,0,141.9c-47.2-42.6-81.8-80.1-58.6-114.9
		C276.2,158.1,370.7,133.2,349.8,51"/>
	<path class="st0" d="M253,547.4c89.7,5.7,227.4-3.2,230.7-45.6c0,0-6.3,16.1-74.1,28.9c-76.5,14.4-171,12.7-226.9,3.5
		C182.6,534.2,194,543.7,253,547.4"/>
</g>
</svg>
