<?xml version="1.0" encoding="utf-8"?>
<!-- Generator: Adobe Illustrator 23.0.1, SVG Export Plug-In . SVG Version: 6.00 Build 0)  -->
<svg version="1.1" id="Layer_1" xmlns="http://www.w3.org/2000/svg" xmlns:xlink="http://www.w3.org/1999/xlink" x="0px" y="0px"
	 viewBox="0 0 600 600" style="enable-background:new 0 0 600 600;" xml:space="preserve">
<style type="text/css">
	.st0{fill:#F7DF1E;}
</style>
<g>
	<rect x="51" y="51" class="st0" width="498" height="498"/>
	<path d="M385.5,440.1c10,16.4,23.1,28.4,46.2,28.4c19.4,0,31.8-9.7,31.8-23.1c0-16-12.7-21.7-34.1-31.1l-11.7-5
		c-33.8-14.4-56.2-32.4-56.2-70.5c0-35.1,26.7-61.8,68.5-61.8c29.8,0,51.1,10.4,66.6,37.5l-36.4,23.4c-8-14.4-16.7-20-30.1-20
		c-13.7,0-22.4,8.7-22.4,20c0,14,8.7,19.7,28.8,28.4l11.7,5c39.8,17,62.2,34.4,62.2,73.5c0,42.1-33.1,65.2-77.5,65.2
		c-43.5,0-71.5-20.7-85.3-47.9L385.5,440.1z M220.2,444.1c7.4,13,14,24.1,30.1,24.1c15.4,0,25.1-6,25.1-29.4V279.7h46.8v159.8
		c0,48.5-28.4,70.5-69.9,70.5c-37.5,0-59.2-19.4-70.2-42.7L220.2,444.1z"/>
</g>
</svg>
