<?xml version="1.0" encoding="utf-8"?>
<!-- Generator: Adobe Illustrator 23.0.1, SVG Export Plug-In . SVG Version: 6.00 Build 0)  -->
<svg version="1.1" id="Layer_1" xmlns="http://www.w3.org/2000/svg" xmlns:xlink="http://www.w3.org/1999/xlink" x="0px" y="0px"
	 viewBox="0 0 600 600" style="enable-background:new 0 0 600 600;" xml:space="preserve">
<style type="text/css">
	.st0{fill:#599636;}
	.st1{fill:#6CAC48;}
	.st2{fill:#C2BFBF;}
</style>
<g>
	<path class="st0" d="M298.4,52.4l13.3,25c3,4.6,6.2,8.7,10,12.5c11.1,11.1,21.7,22.8,31.2,35.3c22.5,29.6,37.7,62.4,48.5,97.9
		c6.5,21.7,10,43.9,10.3,66.4c1.1,67.3-22,125-68.5,173c-7.6,7.6-15.7,14.6-24.4,20.9c-4.6,0-6.8-3.5-8.7-6.8
		c-3.5-6-5.7-12.8-6.8-19.5c-1.6-8.1-2.7-16.3-2.2-24.7v-3.8C300.9,427.8,296.8,54.3,298.4,52.4z"/>
	<path class="st1" d="M298.4,51.5c-0.5-1.1-1.1-0.3-1.6,0.3c0.3,5.4-1.6,10.3-4.6,14.9c-3.3,4.6-7.6,8.1-11.9,11.9
		c-24.1,20.9-43.1,46.1-58.3,74.3c-20.2,38-30.7,78.7-33.6,121.5c-1.4,15.4,4.9,70,9.8,85.7c13.3,41.8,37.2,76.8,68.1,107.1
		c7.6,7.3,15.7,14.1,24.1,20.6c2.4,0,2.7-2.2,3.3-3.8c1.1-3.5,1.9-7,2.4-10.6l5.4-40.7L298.4,51.5z"/>
	<path class="st2" d="M311.7,499.9c0.5-6.2,3.5-11.4,6.8-16.5c-3.3-1.4-5.7-4-7.6-7c-1.6-2.7-3-6-4-9c-3.8-11.4-4.6-23.3-5.7-35v-7
		c-1.4,1.1-1.6,10.3-1.6,11.7c-0.8,12.3-2.4,24.5-4.9,36.6c-0.8,4.9-1.4,9.8-4.4,14.1c0,0.5,0,1.1,0.3,1.9c4.9,14.4,6.2,29,7.1,44
		v5.5c0,6.5-0.3,5.1,5.1,7.3c2.2,0.8,4.6,1.1,6.8,2.7c1.6,0,1.9-1.4,1.9-2.4l-0.8-9v-25C310.4,508.3,311.2,504,311.7,499.9
		L311.7,499.9z"/>
</g>
</svg>
