<?xml version="1.0" encoding="utf-8"?>
<!-- Generator: Adobe Illustrator 23.0.1, SVG Export Plug-In . SVG Version: 6.00 Build 0)  -->
<svg version="1.1" id="Layer_1" xmlns="http://www.w3.org/2000/svg" xmlns:xlink="http://www.w3.org/1999/xlink" x="0px" y="0px"
	 viewBox="0 0 600 600" style="enable-background:new 0 0 600 600;" xml:space="preserve">
<style type="text/css">
	.st0{fill:#00546B;}
</style>
<g>
	<path class="st0" d="M509.7,433.7c-27.1-0.7-48.1,2-65.7,9.5c-5.1,2-13.2,2-13.9,8.5c2.7,2.7,3,7.1,5.4,10.8
		c4.1,6.8,11.2,15.9,17.6,20.7c7.1,5.4,14.2,10.8,21.7,15.6c13.2,8.1,28.1,12.9,41,21c7.5,4.7,14.9,10.8,22.4,15.9
		c3.7,2.7,6.1,7.1,10.8,8.8v-1c-2.4-3-3-7.5-5.4-10.8c-3.4-3.4-6.8-6.4-10.2-9.8c-9.8-13.2-22-24.7-35.2-34.2
		c-10.8-7.5-34.5-17.6-39-30.1c0,0-0.3-0.3-0.7-0.7c7.5-0.7,16.3-3.4,23.4-5.4c11.5-3,22-2.4,33.9-5.4c5.4-1.4,10.8-3,16.3-4.7v-3
		c-6.1-6.1-10.5-14.2-16.9-20c-17.3-14.9-36.2-29.5-55.9-41.7c-10.5-6.8-24-11.2-35.2-16.9c-4.1-2-10.8-3-13.2-6.4
		c-6.1-7.5-9.5-17.3-13.9-26.1c-9.8-18.6-19.3-39.3-27.8-58.9c-6.1-13.2-9.8-26.4-17.3-38.6c-34.9-57.9-72.8-92.8-131.1-127
		c-12.5-7.1-27.4-10.2-43.4-13.9c-8.5-0.3-16.9-1-25.4-1.4c-5.4-2.4-10.8-8.8-15.6-11.9c-19.2-12.1-69-38.5-83.3-3.6
		c-9.1,22,13.6,43.7,21.4,54.8c5.8,7.8,13.2,16.6,17.3,25.4c2.4,5.8,3,11.9,5.4,17.9c5.4,14.9,10.5,31.5,17.6,45.4
		c3.7,7.1,7.8,14.6,12.5,21c2.7,3.7,7.4,5.4,8.5,11.5c-4.7,6.8-5.1,16.9-7.8,25.4c-12.2,38.3-7.4,85.7,9.8,113.8
		c5.4,8.5,18.3,27.1,35.6,20c15.2-6.1,11.9-25.4,16.3-42.3c1-4.1,0.3-6.8,2.4-9.5v0.7c4.7,9.5,9.5,18.6,13.9,28.1
		c10.5,16.6,28.8,33.9,44,45.4c8.1,6.1,14.6,16.6,24.7,20.3v-1H274c-2-3-5.1-4.4-7.8-6.8c-6.1-6.1-12.9-13.5-17.6-20.3
		c-14.2-19-26.8-40-37.9-61.6c-5.4-10.5-10.2-22-14.6-32.5c-2-4.1-2-10.2-5.4-12.2c-5.1,7.5-12.5,13.9-16.3,23
		c-6.4,14.6-7.1,32.5-9.5,51.1c-1.3,0.3-0.7,0-1.4,0.7c-10.8-2.7-14.6-13.9-18.6-23.4c-10.2-24-11.9-62.7-3.1-90.4
		c2.4-7.1,12.5-29.5,8.5-36.2c-2-6.4-8.8-10.2-12.5-15.2c-4.4-6.4-9.2-14.6-12.2-21.7c-8.1-19-12.2-40-21-58.9
		c-4.1-8.8-11.2-17.9-16.9-26.1c-6.4-9.1-13.5-15.6-18.6-26.4c-1.7-3.7-4.1-9.8-1.4-13.9c0.7-2.7,2-3.7,4.7-4.4
		c4.4-3.7,16.9,1,21.3,3.1c12.5,5.1,23,9.8,33.5,16.9c4.7,3.4,9.8,9.8,15.9,11.5h7.1c10.8,2.4,23,0.7,33.2,3.7
		c17.9,5.8,34.2,14.2,48.8,23.4c44.4,28.1,81,68.1,105.7,115.8c4.1,7.8,5.8,14.9,9.5,23c7.1,16.6,15.9,33.5,23,49.8
		c7.1,15.9,13.9,32.2,24,45.4c5.1,7.1,25.4,10.8,34.5,14.6c6.8,3,17.3,5.8,23.4,9.5c11.5,7.1,23,15.2,33.9,23
		C491.8,418.4,508.7,426.9,509.7,433.7L509.7,433.7z"/>
	<path class="st0" d="M164.2,139.3c-5.8,0-9.8,0.7-13.9,1.7v0.7h0.7c2.7,5.4,7.4,9.2,10.8,13.9c2.7,5.4,5.1,10.8,7.8,16.3
		c0.3-0.3,0.7-0.7,0.7-0.7c4.7-3.4,7.1-8.8,7.1-16.9c-2-2.4-2.4-4.7-4.1-7.1C171.3,143.7,166.9,142,164.2,139.3L164.2,139.3z"/>
</g>
</svg>
