<?xml version="1.0" encoding="utf-8"?>
<!-- Generator: Adobe Illustrator 23.0.1, SVG Export Plug-In . SVG Version: 6.00 Build 0)  -->
<svg version="1.1" id="Layer_1" xmlns="http://www.w3.org/2000/svg" xmlns:xlink="http://www.w3.org/1999/xlink" x="0px" y="0px"
	 viewBox="0 0 600 600" style="enable-background:new 0 0 600 600;" xml:space="preserve">
<style type="text/css">
	.st0{fill:#8CC84B;}
</style>
<path class="st0" d="M279.5,56.3c12.5-7.1,28.4-7.1,40.6,0l186.6,105.2c11.7,6.6,19.5,19.6,19.4,33v210.9c0.1,14-8.5,27.3-20.8,33.8
	L319.7,543.9c-12.9,7.1-28.7,6.7-41.2-1.1l-55.7-32.2c-3.8-2.3-8.1-4.1-10.8-7.7c2.4-3.2,6.6-3.6,10-5c7.8-2.5,14.8-6.3,22-10.3
	c1.8-1.3,4-0.8,5.7,0.3l47.5,27.5c3.4,2,6.8-0.6,9.7-2.3l182.3-102.9c2.3-1.1,3.5-3.5,3.3-5.9V195.5c0.3-2.8-1.4-5.4-3.9-6.5
	L303.5,84.7c-2.2-1.5-5.1-1.5-7.3,0L111.3,189.2c-2.5,1.1-4.2,3.7-3.9,6.5v208.9c-0.2,2.5,1.1,4.8,3.4,5.9l49.4,27.9
	c9.3,5,20.7,7.8,30.9,4.1c9.2-3.5,15.2-12.2,15.2-22l0.1-207.6c-0.2-3.1,2.7-5.6,5.7-5.3h23.8c3.1-0.1,5.6,3.2,5.2,6.3l-0.1,209
	c0,18.6-7.6,38.8-24.8,47.9c-21.2,10.9-47.3,8.6-68.2-1.9l-53.1-29.4c-12.5-6.3-20.9-19.8-20.8-33.8v-211c0.1-14,7.8-26.8,20-33.4
	L279.5,56.3z M333.3,202.5c27-1.6,55.9-1,80.1,12.3c18.8,10.2,29.2,31.6,29.6,52.5c-0.5,2.8-3.5,4.4-6.2,4.2
	c-7.8,0-15.7,0.1-23.5-0.1c-3.3,0.1-5.3-2.9-5.7-5.9c-2.3-10-7.7-19.9-17.1-24.7c-14.4-7.2-31.2-6.9-46.9-6.7
	c-11.5,0.6-23.9,1.6-33.6,8.4c-7.5,5.1-9.8,15.6-7.1,23.8c2.5,6,9.4,7.9,15.1,9.7c32.5,8.5,67,7.8,98.9,18.9
	c13.2,4.6,26.1,13.4,30.6,27.3c5.9,18.5,3.3,40.7-9.8,55.6c-10.7,12.3-26.3,18.8-41.8,22.5c-20.7,4.6-42.1,4.7-63.1,2.7
	c-19.7-2.3-40.3-7.4-55.5-20.9c-13-11.3-19.4-28.9-18.8-45.9c0.2-2.9,3-4.9,5.8-4.6h23.4c3.2-0.2,5.5,2.5,5.6,5.5
	c1.4,9.4,5,19.5,13.3,25c16,10.3,36.1,9.6,54.5,9.9c15.2-0.7,32.3-0.9,44.7-10.9c6.6-5.7,8.5-15.3,6.7-23.6
	c-1.9-7-9.4-10.2-15.6-12.5c-32.1-10.2-66.9-6.5-98.7-18c-12.9-4.6-25.4-13.2-30.3-26.4c-6.9-18.8-3.8-42,10.8-56.4
	c14.1-14.3,34.7-19.8,54.2-21.8L333.3,202.5z"/>
</svg>
