<?xml version="1.0" encoding="utf-8"?>
<!-- Generator: Adobe Illustrator 23.0.1, SVG Export Plug-In . SVG Version: 6.00 Build 0)  -->
<svg version="1.1" id="Layer_1" xmlns="http://www.w3.org/2000/svg" xmlns:xlink="http://www.w3.org/1999/xlink" x="0px" y="0px"
	 viewBox="0 0 600 600" style="enable-background:new 0 0 600 600;" xml:space="preserve">
<style type="text/css">
	.st0{fill:#61DAFB;}
</style>
<g>
	<path class="st0" d="M549.5,300c0-33.1-41.4-64.4-104.9-83.8c14.6-64.7,8.1-116.2-20.5-132.6c-6.6-3.9-14.3-5.7-22.8-5.7v22.7
		c4.7,0,8.4,0.9,11.6,2.6c13.8,7.9,19.8,38.1,15.2,77c-1.1,9.6-3,19.6-5.2,29.9c-19.9-4.9-41.7-8.6-64.6-11.1
		c-13.7-18.8-28-35.9-42.3-50.9c33.2-30.8,64.3-47.7,85.4-47.7V77.8l0,0c-28,0-64.6,19.9-101.6,54.5c-37-34.4-73.6-54.1-101.6-54.1
		v22.7c21.1,0,52.3,16.8,85.4,47.4c-14.2,14.9-28.5,31.9-42,50.8c-23,2.4-44.8,6.2-64.7,11.2c-2.3-10.2-4.1-20-5.3-29.5
		c-4.8-38.8,1.1-69.1,14.8-77.1c3.1-1.8,7-2.6,11.7-2.6V78.3l0,0c-8.5,0-16.3,1.8-23,5.7c-28.6,16.5-35,67.8-20.2,132.3
		C91.7,235.9,50.5,267.1,50.5,300c0,33.1,41.4,64.4,104.9,83.8c-14.7,64.7-8.1,116.2,20.5,132.6c6.6,3.9,14.3,5.7,22.9,5.7
		c28,0,64.6-19.9,101.6-54.5c37,34.4,73.6,54.1,101.6,54.1c8.5,0,16.3-1.8,23-5.7c28.6-16.5,35-67.8,20.2-132.3
		C508.3,364.3,549.5,333,549.5,300z M417.1,232.2c-3.8,13.1-8.4,26.6-13.7,40.2c-4.2-8.1-8.5-16.3-13.3-24.4
		c-4.7-8.1-9.7-16.1-14.6-23.8C389.8,226.3,403.8,228.9,417.1,232.2z M370.5,340.5c-7.9,13.7-16.1,26.8-24.5,38.9
		c-15.2,1.3-30.5,2-46,2c-15.4,0-30.7-0.7-45.8-1.9c-8.4-12.1-16.7-25-24.6-38.6c-7.7-13.3-14.8-26.9-21.2-40.5
		c6.3-13.6,13.4-27.3,21.1-40.6c7.9-13.7,16.1-26.8,24.5-38.9c15.2-1.3,30.5-2,46-2c15.4,0,30.7,0.7,45.8,1.9
		c8.4,12.1,16.7,25,24.6,38.6c7.7,13.3,14.8,26.9,21.2,40.5C385.1,313.6,378.1,327.2,370.5,340.5z M403.3,327.3
		c5.5,13.6,10.2,27.3,14,40.5c-13.3,3.3-27.4,6-41.9,8.1c5-7.8,10-15.9,14.6-24.1C394.8,343.7,399.2,335.5,403.3,327.3z
		 M300.2,435.8c-9.5-9.8-18.9-20.6-28.3-32.5c9.1,0.4,18.5,0.7,28,0.7c9.6,0,19-0.2,28.3-0.7C319,415.2,309.6,426.1,300.2,435.8z
		 M224.5,375.9c-14.4-2.1-28.4-4.8-41.7-8c3.8-13.1,8.4-26.6,13.7-40.2c4.2,8.1,8.5,16.3,13.3,24.4
		C214.7,360.3,219.6,368.2,224.5,375.9z M299.7,164.3c9.5,9.8,18.9,20.7,28.3,32.5c-9.1-0.4-18.5-0.7-28-0.7c-9.6,0-19,0.2-28.3,0.7
		C280.9,184.9,290.3,174,299.7,164.3z M224.4,224.2c-5,7.8-10,15.9-14.6,24.1c-4.7,8.1-9.1,16.3-13.2,24.4
		c-5.5-13.6-10.2-27.3-14-40.5C195.9,229.1,209.9,226.3,224.4,224.2z M132.4,351.5c-36-15.4-59.3-35.5-59.3-51.5
		s23.3-36.2,59.3-51.5c8.8-3.8,18.3-7.1,28.2-10.3c5.8,19.9,13.4,40.7,22.9,61.9c-9.4,21.2-16.9,41.8-22.6,61.6
		C150.8,358.7,141.2,355.3,132.4,351.5z M187.1,496.9c-13.8-7.9-19.8-38.1-15.2-77c1.1-9.6,2.9-19.6,5.2-29.9
		c19.9,4.9,41.7,8.6,64.6,11.1c13.7,18.8,28,35.9,42.3,50.9c-33.2,30.8-64.3,47.7-85.4,47.7C194,499.5,190.1,498.6,187.1,496.9z
		 M428.4,419.4c4.8,38.9-1.1,69.1-14.9,77.1c-3,1.8-7,2.6-11.7,2.6c-21,0-52.3-16.8-85.4-47.4c14.2-15,28.5-31.9,42-50.8
		c23-2.4,44.8-6.2,64.7-11.2C425.4,400,427.2,409.9,428.4,419.4z M467.5,351.5c-8.8,3.8-18.3,7.1-28.2,10.3
		c-5.8-19.9-13.4-40.7-22.9-61.9c9.4-21.2,16.9-41.8,22.6-61.6c10.1,3.1,19.6,6.6,28.6,10.4c36,15.4,59.3,35.5,59.3,51.5
		C526.8,316,503.5,336.3,467.5,351.5z"/>
	<path class="st0" d="M198.1,78.2L198.1,78.2L198.1,78.2z"/>
	<circle class="st0" cx="299.9" cy="300" r="46.5"/>
	<path class="st0" d="M401.2,77.9L401.2,77.9L401.2,77.9z"/>
</g>
</svg>
