<?xml version="1.0" encoding="utf-8"?>
<!-- Generator: Adobe Illustrator 23.0.1, SVG Export Plug-In . SVG Version: 6.00 Build 0)  -->
<svg version="1.1" id="Layer_1" xmlns="http://www.w3.org/2000/svg" xmlns:xlink="http://www.w3.org/1999/xlink" x="0px" y="0px"
	 viewBox="0 0 600 600" style="enable-background:new 0 0 600 600;" xml:space="preserve">
<style type="text/css">
	.st0{fill:#FFFFFF;}
</style>
<g>
	<path d="M60.3,96h479.5c5.4,0,9.8,4.4,9.8,9.8v388.6c0,5.4-4.4,9.8-9.8,9.8H60.3c-5.4,0-9.8-4.4-9.8-9.8V105.7
		C50.5,100.3,54.9,96,60.3,96z"/>
	<path class="st0" d="M105.5,138.4c-1.7-1.7-3.7-2.5-6-2.5s-4.4,0.8-6.1,2.5c-1.7,1.7-2.5,3.7-2.5,6s0.8,4.4,2.5,6l26.2,26.2
		l-26.2,26.2c-1.7,1.7-2.5,3.7-2.5,6.1c0,2.4,0.9,4.4,2.5,6c1.7,1.7,3.7,2.5,6,2.5c2.4,0,4.4-0.8,6.1-2.5l29.1-29.1
		c6.1-6.1,6.1-12.2,0-18.3L105.5,138.4z M219.7,202.9c-1.7-1.7-3.7-2.5-6.1-2.5l0,0h-56.2l0,0c-2.4,0-4.4,0.8-6.1,2.5
		c-1.7,1.7-2.5,3.7-2.5,6.1s0.8,4.4,2.5,6.1c1.7,1.7,3.7,2.5,6.1,2.5l0,0h56.2l0,0c2.4,0,4.4-0.8,6.1-2.5c1.7-1.7,2.5-3.7,2.5-6.1
		S221.4,204.6,219.7,202.9L219.7,202.9z"/>
</g>
</svg>
