<?xml version="1.0" encoding="utf-8"?>
<!-- Generator: Adobe Illustrator 23.0.1, SVG Export Plug-In . SVG Version: 6.00 Build 0)  -->
<svg version="1.1" id="Layer_1" xmlns="http://www.w3.org/2000/svg" xmlns:xlink="http://www.w3.org/1999/xlink" x="0px" y="0px"
	 viewBox="0 0 600 600" style="enable-background:new 0 0 600 600;" xml:space="preserve">
<style type="text/css">
	.st0{fill:#FFFFFF;}
	.st1{fill-opacity:0;stroke:#000000;stroke-opacity:0;}
</style>
<g>
	<g>
		<g>
			<g>
				<path id="a1dFu8IyT2" class="st0" d="M300,51C162.5,51,51,162.5,51,300s111.5,249,249,249s249-111.5,249-249S437.5,51,300,51z"
					/>
			</g>
			<g>
				<g>
					<path class="st1" d="M300,51C162.5,51,51,162.5,51,300s111.5,249,249,249s249-111.5,249-249S437.5,51,300,51z"/>
				</g>
			</g>
		</g>
		<g>
			<g>
				<path id="c2Jadsc3dr" d="M300,55.4C164.9,55.4,55.4,164.9,55.4,300S164.9,544.6,300,544.6S544.6,435.1,544.6,300
					S435.1,55.4,300,55.4z"/>
			</g>
			<g>
				<g>
					<path class="st1" d="M300,55.4C164.9,55.4,55.4,164.9,55.4,300S164.9,544.6,300,544.6S544.6,435.1,544.6,300
						S435.1,55.4,300,55.4z"/>
				</g>
			</g>
		</g>
		<g>
			<g>
				<path id="cI0zEfQQQ" class="st0" d="M167.5,152.2c-4.2,0-7.8,1.5-10.8,4.4s-4.5,6.5-4.5,10.6s1.5,7.7,4.5,10.6
					c3.1,3.1,18.7,18.5,46.7,46.2c-28,27.7-43.5,43-46.7,46.1c-3,3-4.5,6.5-4.5,10.7c0.1,4.1,1.6,7.7,4.5,10.6
					c3,2.9,6.6,4.4,10.8,4.5c4.2,0,7.8-1.5,10.9-4.5c5.2-5.1,46.7-46.2,51.9-51.3c10.9-10.7,10.9-21.5,0-32.3
					c-3.5-3.4-20.8-20.5-51.9-51.3C173.9,153.6,170.3,152.2,167.5,152.2z M370.7,265.8L370.7,265.8H270.5l0,0
					c-4.3,0-7.9,1.5-10.9,4.4c-3,3-4.5,6.5-4.5,10.7s1.5,7.8,4.5,10.8s6.6,4.4,10.9,4.4l0,0h100.2l0,0c4.3,0,7.9-1.5,10.9-4.4
					c3-3,4.5-6.6,4.5-10.8c0-4.2-1.5-7.8-4.5-10.7l0,0C377.2,267.3,373.5,265.8,370.7,265.8z"/>
			</g>
			<g>
				<g>
					<path class="st1" d="M167.5,152.2c-4.2,0-7.8,1.5-10.8,4.4s-4.5,6.5-4.5,10.6s1.5,7.7,4.5,10.6c3.1,3.1,18.7,18.5,46.7,46.2
						c-28,27.7-43.5,43-46.7,46.1c-3,3-4.5,6.5-4.5,10.7c0.1,4.1,1.6,7.7,4.5,10.6c3,2.9,6.6,4.4,10.8,4.5c4.2,0,7.8-1.5,10.9-4.5
						c5.2-5.1,46.7-46.2,51.9-51.3c10.9-10.7,10.9-21.5,0-32.3c-3.5-3.4-20.8-20.5-51.9-51.3C173.9,153.6,170.3,152.2,167.5,152.2z
						 M370.7,265.8L370.7,265.8H270.5l0,0c-4.3,0-7.9,1.5-10.9,4.4c-3,3-4.5,6.5-4.5,10.7s1.5,7.8,4.5,10.8s6.6,4.4,10.9,4.4l0,0
						h100.2l0,0c4.3,0,7.9-1.5,10.9-4.4c3-3,4.5-6.6,4.5-10.8c0-4.2-1.5-7.8-4.5-10.7l0,0C377.2,267.3,373.5,265.8,370.7,265.8z"/>
				</g>
			</g>
		</g>
	</g>
</g>
</svg>
