<?xml version="1.0" encoding="utf-8"?>
<!-- Generator: Adobe Illustrator 23.0.1, SVG Export Plug-In . SVG Version: 6.00 Build 0)  -->
<svg version="1.1" id="Layer_1" xmlns="http://www.w3.org/2000/svg" xmlns:xlink="http://www.w3.org/1999/xlink" x="0px" y="0px"
	 viewBox="0 0 600 600" style="enable-background:new 0 0 600 600;" xml:space="preserve">
<style type="text/css">
	.st0{fill:#0065A9;}
	.st1{fill:#007ACC;}
	.st2{fill:#1F9CF0;}
	.st3{opacity:0.25;}
	.st4{fill-rule:evenodd;clip-rule:evenodd;fill:url(#SVGID_1_);}
</style>
<g>
	<path class="st0" d="M531.3,104.9L428.8,55.5c-11.9-5.7-26.1-3.3-35.4,6L57.7,367.6c-9,8.2-9,22.4,0,30.7l27.4,24.9
		c7.4,6.7,18.5,7.2,26.5,1.2l404.3-306.7c13.6-10.3,33-0.6,33,16.4v-1.2C548.9,121,542.1,110.1,531.3,104.9z"/>
	<g>
		<path class="st1" d="M531.3,495.1l-102.5,49.4c-11.9,5.7-26.1,3.3-35.4-6L57.7,232.4c-9-8.2-9-22.4,0-30.7l27.4-24.9
			c7.4-6.7,18.5-7.2,26.5-1.2l404.3,306.7c13.6,10.3,33,0.6,33-16.4v1.2C548.9,479,542.1,489.9,531.3,495.1z"/>
	</g>
	<g>
		<path class="st2" d="M428.8,544.5c-11.9,5.7-26.1,3.3-35.4-6c11.5,11.5,31.1,3.3,31.1-12.9V74.4c0-16.2-19.6-24.4-31.1-12.9
			c9.3-9.3,23.5-11.7,35.4-6l102.5,49.3c10.8,5.2,17.6,16.1,17.6,28v334.3c0,12-6.9,22.9-17.6,28L428.8,544.5z"/>
	</g>
	<g class="st3">
		
			<linearGradient id="SVGID_1_" gradientUnits="userSpaceOnUse" x1="299.775" y1="530.4283" x2="299.775" y2="1025.554" gradientTransform="matrix(1 0 0 1 0 -478)">
			<stop  offset="0" style="stop-color:#FFFFFF"/>
			<stop  offset="1" style="stop-color:#FFFFFF;stop-opacity:0"/>
		</linearGradient>
		<path class="st4" d="M403.8,545.4c7.8,3.1,16.8,2.9,24.7-0.9L531,495.2c10.8-5.2,17.6-16.1,17.6-28V132.8c0-12-6.8-22.9-17.6-28
			L428.5,55.5c-10.4-5-22.5-3.8-31.6,2.9c-1.3,0.9-2.5,2-3.7,3.2L197,240.5l-85.4-64.9c-8-6-19.1-5.5-26.5,1.2l-27.4,24.9
			c-9,8.2-9,22.4,0,30.7l74.1,67.6l-74.1,67.6c-9,8.2-9,22.4,0,30.7l27.4,24.9c7.4,6.7,18.5,7.2,26.5,1.2l85.4-64.9l196.2,179
			C396.3,541.6,399.9,543.9,403.8,545.4z M424.3,187L275.4,300l148.8,113L424.3,187L424.3,187z"/>
	</g>
</g>
</svg>
